<?xml version="1.0" encoding="utf-8"?>
<!-- Generator: Adobe Illustrator 22.0.1, SVG Export Plug-In . SVG Version: 6.00 Build 0)  -->
<svg version="1.1" id="Layer_1" xmlns="http://www.w3.org/2000/svg" xmlns:xlink="http://www.w3.org/1999/xlink" x="0px" y="0px"
	 width="275px" height="275.01px" viewBox="0 0 275 275.01" style="enable-background:new 0 0 275 275.01;" xml:space="preserve">
<path style="fill:#FFFFFF;" d="M271.24,175.44c2.33-5.92,2.54-12.27,0.31-18.25c-2.28-6.12-6.9-11.11-8.59-17.49
	c-0.77-2.92,0.05-5.43,1.11-8.16c1.18-3.01,2.74-5.85,4.21-8.72c2.78-5.41,4.69-11.08,4.2-17.24c-0.45-5.68-2.45-11.26-6.42-15.42
	c-3.22-3.37-7.32-5.73-11.27-8.13c-3.62-2.2-8.2-4.43-9.65-8.71c-2.14-6.32-1.18-13.23-2.26-19.73
	c-1.74-10.4-8.99-19.28-19.39-21.79c-5.89-1.42-11.94-0.65-17.92-1.28c-2.46-0.26-4.91-0.74-6.89-2.33
	c-2.33-1.88-4.09-4.56-5.73-7.04c-2.79-4.18-5.32-8.54-9.04-12c-3.69-3.44-8.24-5.7-13.16-6.76c-4.46-0.97-8.79-0.62-13.09,0.98
	c-5.52,2.05-10.29,5.6-15.67,7.96c-1.4,0.62-2.9,1.14-4.45,1.18c-1.43,0.04-2.86-0.33-4.2-0.8c-2.39-0.83-4.63-2.04-6.88-3.19
	c-5.24-2.69-10.32-5.32-16.28-5.92C105,2.07,99.7,2.8,95.1,5.31c-4.91,2.68-8.35,6.99-11.17,11.72c-1.72,2.87-3.34,5.8-5.36,8.47
	c-0.91,1.2-1.86,2.43-3.08,3.34c-1.22,0.91-2.76,1.37-4.22,1.69c-4.87,1.06-10.08,0.79-15.03,1.31c-5.84,0.62-11.19,2.46-15.8,6.17
	c-4.5,3.62-7.64,8.39-8.88,14.06C30.12,58.6,31.2,65.38,30,71.95c-0.25,1.39-0.53,2.75-1.39,3.9c-0.94,1.25-2.21,2.26-3.43,3.23
	c-2.72,2.17-5.69,3.99-8.6,5.9c-2.65,1.74-5.22,3.6-7.36,5.96c-1.98,2.19-3.62,4.68-4.86,7.36c-1.85,4-2.71,8.22-2.53,12.61
	c0.25,6.13,3.94,11.7,6.83,16.87c1.56,2.79,3.44,5.88,3.72,9.13c0.27,3.11-1.21,6.37-2.51,9.11c-2.48,5.2-5.64,10.13-6.82,15.84
	c-1.14,5.55-0.76,11.54,1.62,16.73c1.78,3.87,4.61,7.16,8.01,9.71c4.49,3.37,9.86,5.46,14.18,9.06c1.03,0.86,2.02,1.84,2.62,3.06
	c0.64,1.3,0.89,2.76,1.15,4.18c0.58,3.14,0.72,6.32,0.87,9.51c0.28,6.01,1,11.9,4.17,17.16c2.89,4.79,7.12,8.88,12.35,10.98
	c5.92,2.37,12.55,2.02,18.8,2.09c3.05,0.03,6.54,0.15,9.06,2.08c2.44,1.86,4.35,4.65,6.06,7.15c3.44,5.04,6.36,10.44,11.33,14.19
	c4.14,3.12,9.12,4.74,14.22,5.43c2.16,0,4.14-0.01,6.27-0.48c3.42-0.75,6.64-2.18,9.69-3.88c3.47-1.93,6.78-4.21,10.59-5.45
	c1.98-0.64,3.92-0.94,5.98-0.5c1.85,0.39,3.58,1.19,5.26,2.02c6.7,3.28,13.19,7.31,20.84,7.69c6.63,0.34,13.93-1.86,18.81-6.47
	c5.11-4.83,7.64-11.54,11.78-17.09c0.99-1.33,2.16-2.6,3.65-3.36c1.68-0.86,3.61-1.3,5.45-1.6c4.02-0.66,8.11-0.55,12.17-0.83
	c7.35-0.52,14.02-3.3,19.24-8.57c2.4-2.43,4.25-5.35,5.38-8.57c1.32-3.76,1.53-7.66,1.53-11.61c0-4.23-0.1-8.52,0.98-12.65
	c0.48-1.83,1.41-3.05,2.83-4.28c1.5-1.29,3.03-2.54,4.65-3.67c3.26-2.29,6.76-4.22,9.88-6.71c2.61-2.08,4.91-4.52,6.64-7.38
	C269.95,178.39,270.65,176.94,271.24,175.44z"/>
<path style="fill:#006937;" d="M157.9,77.8c1.03-2.03-0.5-3.16-1.94-4c-0.77-0.44-2.26-1.06-2.18-1.95c0.15-1.85,4.6-0.58,3.55,1.49
	c0.61-0.03,0.95,0.2,1.49,0.24c1.41-4.02-5.88-5.57-6.64-2.3c-0.82,3.5,4.53,3.31,4.47,5.38c-0.08,2.11-5.48,0.78-4.25-1.71
	c-0.54-0.02-0.96-0.19-1.49-0.24C149.42,78.67,156.36,80.84,157.9,77.8 M133.39,77c0.01-1.39,0.02-2.77-0.12-4.01h2.07
	c1.26,0.99,2,2.51,2.98,3.78c0.7,0.06,1.52-0.09,1.94,0c-0.86-1.55-1.97-2.85-2.98-4.24c2.2-0.31,2.32-3.58,0.91-4.58
	c-1.67-1.2-4.4,0.03-6.64-0.35c-0.05,3.26,0.25,6.17,0.22,9.4H133.39z M133.15,68.98c1.95,0.09,4.31-0.47,4.36,1.15
	c0.04,1.6-2.33,1.32-4.24,1.38C133.35,70.54,133.06,69.94,133.15,68.98 M85.94,104.27c-2.76-1.51-5.12-3.45-7.89-4.92
	c-0.12,0.58-0.67,0.71-0.71,1.37c2.63,1.65,5.18,3.38,7.8,5.05C85.33,105.19,85.79,104.91,85.94,104.27 M177.15,90.74
	c3.88,1.75,5.81-4.05,7.79-6.06c-0.61-0.12-0.69-0.77-1.38-0.81c-1.42,1.06-2.88,5.48-4.93,5.62c-1.11,0.08-2.25-0.8-2.4-1.83
	c-0.19-1.45,1.19-2.46,1.82-3.32c0.89-1.19,1.46-2.08,2.18-3.1c-0.4-0.32-0.79-0.67-1.27-0.91c-0.82,1.51-3.16,3.66-4,5.38
	C173.89,87.94,175.52,90.02,177.15,90.74 M172.79,83.41c-0.45-0.3-0.74-0.79-1.25-1.03c-0.59,0.67-0.88,1.04-1.62,1.15
	c-4.27,0.63-3.21-5.98-0.22-6.53c1.81-0.35,3.59,0.92,2.98,3.09c0.6,0.05,1,0.3,1.61,0.34c0.53-3.12-1.39-4.66-3.55-4.93
	c-4.06-0.46-6.94,5.41-4.36,8.15C167.84,85.21,171.67,85.75,172.79,83.41 M80.56,114.13c-0.55-0.08-0.83-0.47-1.48-0.45
	c-0.58,1.76-1.22,3.44-1.96,5.03c-0.68-0.42-1.72-0.49-2.29-1.03c0.56-1.49,1.1-3.02,1.71-4.47c-0.42-0.23-0.93-0.38-1.37-0.57
	c-0.63,1.5-1.13,3.15-1.83,4.58c-0.66-0.34-1.59-0.4-2.08-0.9c0.64-1.59,1.27-3.18,1.85-4.82c-0.47-0.14-0.84-0.39-1.38-0.46
	c-0.79,2.15-1.69,4.19-2.4,6.42c2.93,1.08,5.81,2.21,8.72,3.33C78.81,118.5,79.73,116.35,80.56,114.13 M148.73,76.19
	c-1.91-0.3-3.93-0.3-5.39-0.8c0.14-0.79,0.15-1.69,0.35-2.4c1.9,0.14,2.99,0.38,4.81,0.58c0.17-0.41,0.14-1.03,0.23-1.5
	c-1.91-0.25-3.61-0.33-4.93-0.69c0.26-0.61,0.05-1.71,0.46-2.17c1.31,0.18,3.27,0.5,5.04,0.58c0.16-0.38,0.16-0.93,0.24-1.39
	c-2.13-0.32-4.83-0.66-6.77-0.8c-0.6,3.1-0.76,6.17-1.26,9.17c2.33,0.35,4.75,0.61,7.1,0.92C148.56,77.09,148.82,76.81,148.73,76.19
	 M84.1,107.14c-0.58-0.07-0.7-0.58-1.36-0.57c-0.69,1.27-1.29,2.63-2.08,3.78c-2.25-1.26-4.57-2.44-6.86-3.66
	c-0.18,0.55-0.66,0.79-0.69,1.48c2.81,1.35,5.35,2.98,8.25,4.24C82.26,110.63,83.22,108.93,84.1,107.14 M124.21,78.26
	c6.64,0.63,6.29-9.91,0.35-9.63c-0.93,0.05-1.56,0.14-2.19,0.47C119,70.86,119.68,77.82,124.21,78.26 M124.33,70.13
	c0,0,0.02-0.11,0.11-0.11c4.44-0.18,4.01,8.31-0.67,6.64C121.18,75.75,120.94,70.5,124.33,70.13 M180.93,93.96
	c1.39,1.41,2.7,2.89,4.13,4.25c0.22-0.47,0.77-0.6,1.03-1.04c-0.93-1.13-2.15-1.97-2.98-3.21c1.79-1.87,3.84-3.48,5.5-5.49
	c-0.37-0.37-0.58-0.87-1.14-1.04C185.4,89.72,182.92,91.59,180.93,93.96 M96.48,90.3c2.35,0.64,5.35-0.74,5.73-3.67
	c0.42-3.37-2.63-6.04-5.4-5.72C90.97,81.58,92.36,89.16,96.48,90.3 M96.48,82.51c1.95-0.43,3.78,1.15,4.13,2.86
	c0.38,1.88-0.9,3.46-2.52,3.56C94.89,89.1,92.56,83.37,96.48,82.51 M192.04,107.25c-0.08,2.08,1.4,4.39,3.67,4.36
	c2.71-0.02,4.98-2.83,7.11-3.54c-0.4-0.34-0.42-1.05-0.93-1.27c-1.36,0.57-3.5,2.2-5.15,2.86c-0.35,0.15-0.99,0.4-1.36,0.35
	c-1.04-0.15-2.05-1.72-1.73-2.99c0.26-0.96,2.05-1.53,2.97-2.05c1.25-0.69,2.13-1.41,3.33-1.83c-0.23-0.58-0.44-1.17-0.92-1.49
	C197.33,103.51,192.21,103.85,192.04,107.25 M188.5,102.55c2.03-1.63,4.08-3.23,6.3-4.69c0.46,0.83,1.15,1.45,1.61,2.29
	c0.5-0.22,0.89-0.57,1.26-0.92c-1.55-1.95-2.97-4.06-4.57-5.96c-0.24,0.44-0.93,0.44-1.04,1.03c0.51,0.75,1.16,1.37,1.61,2.18
	c-1.97,1.66-4.07,3.19-6.18,4.7C187.69,101.75,188.11,102.13,188.5,102.55 M87.32,100.83c2.53-0.33,4.08-2.73,4.24-5.72
	c-0.85-0.83-1.75-1.6-2.75-2.3c-0.95,1-1.88,2.02-2.63,3.21c0.35,0.22,0.57,0.57,0.91,0.8c0.92-0.35,1.05-1.48,1.95-1.82
	c0.3,0.31,0.73,0.49,0.92,0.91c-0.39,2.27-1.84,3.71-3.89,3.32c-4.14-0.79-3.56-7.75,0.91-6.08c0.23-0.43,0.44-0.87,0.57-1.37
	c-3.47-1.56-6.5,1.65-5.96,4.93C81.99,99.17,84.83,101.16,87.32,100.83 M117.11,144.26c-4.21,12.76-8.33,25.59-12.5,38.39
	c10.96-7.51,32.8-23.76,32.8-23.76l32.98,23.64l-12.48-38.39l32.55-23.94H150.1c-4.29-12.82-12.72-38.62-12.72-38.62l-12.59,38.62
	H84.45C84.45,120.2,106.48,136.06,117.11,144.26 M137.37,156.94l-29.21,21.11l29.25-40.26L137.37,156.94z M148.99,121.86h36.04
	l-47.29,15.5L148.99,121.86z M155.94,143.52l11.19,34.24l-29.4-40.13L155.94,143.52z M137.3,87.48l0.14,49.75l-11.26-15.49
	L137.3,87.48z M137.19,137.52l-18.22,5.84l-29.07-21.3L137.19,137.52z M111.72,82.51c-0.6-2.05-1.55-3.72-2.17-5.74
	c0.6,0.48,1.32,1.4,2.17,2.41c1.05,1.25,2.16,3.36,3.43,1.72c-0.13-1.93-0.42-4.31-0.22-6.2c0.72,1.85,1.49,3.64,2.17,5.51
	c0.63-0.03,0.92-0.38,1.49-0.46c-1.19-2.94-2.17-6.07-3.66-8.71c-0.5,0.27-1.05,0.48-1.61,0.7c0.04,2.86,0.3,4.89,0.34,7.44
	c-1.65-1.82-3.24-3.7-4.81-5.61c-0.7,0.2-1.3,0.51-1.94,0.8c1.1,2.99,2.23,5.96,3.55,8.71C110.8,82.81,111.29,82.67,111.72,82.51
	 M94.31,94.53c0.43-0.01,0.84-1.16,1.03-1.26c-2.24-2.13-4.11-4.6-6.42-6.65c-0.28,0.37-0.58,0.72-1.03,0.92
	c1.12,1.46,3.13,3.61,4.7,5.27C92.97,93.21,93.94,94.54,94.31,94.53 M196.06,116.32c1.35-0.32,2.55-0.83,3.77-1.27
	c1.48,2.55-1,4.26-2.18,5.84c0.15,0.66,0.42,1.17,0.58,1.83c1.19-1.13,2.27-2.4,2.98-4.01c0.73,0.61,1.1,1.21,2.07,1.27
	c4.75,0.32,1.95-6.1,1.15-8.14c-3.02,0.91-5.87,2.01-8.84,2.98C195.64,115.42,195.94,115.78,196.06,116.32 M203.38,113.78
	c0.97,1.03,2.18,5.24-0.46,4.48c-1.16-0.34-1.03-2.57-1.71-3.67C201.96,114.32,202.8,114.19,203.38,113.78 M198.7,124.67
	c1.05,0.05,1.92,0.28,2.86,0.46c0.32,1.03,0.41,2.27,0.68,3.32c-0.79,0.5-1.59,0.99-2.4,1.49c-0.05,0.71,0.23,1.08,0.23,1.72
	c3.02-1.61,5.6-3.64,8.48-5.38c0.01-0.62-0.27-0.96-0.24-1.61c-3.32-0.54-6.58-1.13-9.86-1.71
	C198.44,123.62,198.67,124.04,198.7,124.67 M206.36,125.82c-0.81,0.71-1.93,1.1-2.75,1.82c-0.41-0.52-0.33-1.56-0.57-2.28
	C204.24,125.42,205.15,125.77,206.36,125.82 M198.7,39.65c-5.09,7.94-10.28,15.77-15.36,23.72c1.16,0.55,2.01,1.43,3.21,1.94
	c4.99-7.98,10.32-15.65,15.25-23.71C200.71,40.99,199.76,40.26,198.7,39.65 M76.09,128.57c-1.26-0.32-2.74-0.4-3.77-0.93
	c0.04-2.83,2.92-2.87,4.92-3.76c-0.01-0.79,0.27-1.26,0.34-1.95c-1.61,0.58-3.28,1.13-4.69,1.95c0.08-2.69-3.49-3.28-4.7-1.61
	c-1.1,1.51-0.76,4.2-1.49,5.96c3.03,0.68,6.07,1.35,9.17,1.95C75.86,129.6,76.25,128.93,76.09,128.57 M70.94,127.42
	c-1.01,0.02-1.61-0.38-2.53-0.46c-0.11-1.78,1.43-5.48,2.85-3.54C72.06,124.48,70.82,126.01,70.94,127.42 M189.41,34.38
	c-2.63,5.45-5.06,11.12-7.8,16.5c0.22-6.23,0.34-13.19,0.47-20.06c-1.09-0.39-2.01-0.95-3.1-1.38c-4.19,8.33-8,17.04-12.03,25.55
	c1.15,0.47,2.15,1.06,3.33,1.49c2.58-5.4,5.12-11.49,7.78-16.39c-0.21,6.55-0.33,13.18-0.45,19.83c1.04,0.52,2.09,1.03,3.21,1.49
	c3.97-8.52,7.94-17.05,11.92-25.55C191.64,35.36,190.63,34.76,189.41,34.38 M138.32,45.26c-3.74,0.1-7.6,0.51-10.89,0.69
	c-0.13-2.51-0.48-5.41-0.46-7.68c3.38-0.25,5.93-0.45,9.62-0.68c0-1.56-0.27-2.87-0.22-4.47c-3-0.01-6.52,0.43-9.74,0.58
	c-0.22-2.27-0.43-4.91-0.46-6.76c3.39-0.26,6.79-0.53,10.3-0.7c-0.09-1.53-0.13-3.13-0.33-4.57c-4.4,0.24-9.34,0.68-14.1,0.91
	c0.7,10.08,1.32,18.21,1.95,28.19c5.35-0.3,9.48-0.61,14.54-1.03C138.52,48,138.21,46.7,138.32,45.26 M112.07,48.93
	c-1.93-7.67-3.98-15.21-6.07-22.7c-0.99,0.03-2.31,0.68-3.56,0.81c2.47,9.14,4.75,18.48,7.46,27.37c3.82-1.17,7.84-2.15,11.79-3.2
	c-0.31-1.56-0.77-2.97-1.15-4.47C117.78,47.46,114.68,48.44,112.07,48.93 M207.74,78.5c2.18-1.38,4.01-3.1,6.19-4.47
	c1.88,2.61,3.88,5.07,5.74,7.68c1.35-0.74,2.41-1.77,3.66-2.63c-1.77-2.74-3.91-5.09-5.73-7.8c1.68-1.5,3.58-2.76,5.39-4.11
	c2.04,2.77,4.14,5.47,6.19,8.24c1.34-0.76,2.37-1.82,3.68-2.63c-2.8-3.86-5.6-7.7-8.61-11.34c-6.1,4.66-13.25,10.06-19.7,14.89
	c-0.68,0.5-2.73,1.81-2.74,2.18c-0.02,0.09,0.76,0.9,1.12,1.38c2.7,3.54,5.11,6.79,7.57,10.08c1.35-0.75,2.41-1.78,3.66-2.64
	C212.15,84.24,209.7,81.62,207.74,78.5 M169.7,26.13c-1.36-0.09-2.31-0.6-3.66-0.68c-0.7,3.86-1.71,7.66-2.63,12.14
	c-0.69,3.32-1.25,9.67-4.25,10.54c-3.46,1-4.9-1.76-4.69-4.93c0.19-3.04,1.26-6.32,1.94-9.62c0.69-3.35,1.39-6.67,1.94-9.86
	c-1.22-0.14-2.28-0.47-3.44-0.68c-0.13,0.05-0.22,0.15-0.22,0.34c-0.64,3-1.33,6.41-2.07,9.86c-0.91,4.3-2.46,8.41-1.94,13.3
	c0.43,4.23,5.49,8.17,10.3,5.6c4.35-2.31,4.97-8.54,6.2-14.2C168.07,33.78,169.02,29.67,169.7,26.13 M272.71,155.15
	c-2.4-5.71-6.96-10.63-8.25-17.08c-0.34-1.7,0.63-4.07,1.26-5.73c2.96-7.66,7.83-12.94,8.59-22.57c0.31-3.88-0.27-7.63-1.26-11
	c-2.99-10.25-10.35-14.08-18.45-19.03c-2.8-1.71-6.79-3.88-7.78-7.22c-1.62-5.41-1.26-11.78-1.84-17.07
	c-0.58-5.4-2.2-10.12-4.94-14.11c-5.19-7.61-12.6-12.37-25.53-12.37c-3.25,0-6.34-0.03-9.05-0.34c-3.35-0.37-4.89-1.01-6.65-2.86
	c-2.88-3.04-5.35-7.34-7.9-11.12C185.9,7.32,179.53,1.42,167.64,0h-3.67c-7.76,0.73-13.58,4.94-19.7,8.14
	c-1.87,0.96-4.59,2.47-6.76,2.51c-2.93,0.07-7.02-2.19-9.29-3.32c-5.84-2.93-10.65-6.02-18.56-6.64c-12.57-1-20.4,5.03-25.33,12.25
	c-2.53,3.72-4.51,7.9-7.33,11.57c-0.87,1.13-2.05,2.63-3.2,3.22c-2.74,1.39-6.4,1.49-9.86,1.71c-3.51,0.22-7.3,0.39-10.54,0.91
	c-6.92,1.12-11.51,3.83-15.59,7.46c-4.03,3.57-7.07,8.41-8.25,14.78c-1.2,6.5-0.06,14.76-1.84,21.08c-0.37,1.35-2.53,3.05-3.88,4.12
	c-4.16,3.32-9.49,6.04-13.41,9.4C5.04,91.84,0.77,99.15,0,107.37v3.67c0.72,8.03,5.19,13.87,8.37,20.05
	c0.99,1.91,2.46,4.85,2.17,7.1c-0.36,3.12-1.93,6.3-3.32,9.05c-2.92,5.81-5.99,10.57-6.53,18.45c-0.83,12.15,4.94,20.09,12.15,24.97
	c2.28,1.55,5.09,3.04,7.79,4.7c2.13,1.3,5.73,3.42,7,5.5c0.71,1.17,0.99,2.99,1.26,4.47c0.92,5.1,0.58,11.17,1.38,16.04
	c1.09,6.82,3.66,11.44,7.44,15.71c3.64,4.11,8.38,7.16,14.77,8.35c3.28,0.62,7.2,0.58,10.89,0.7c3.65,0.11,7.45-0.24,10.44,1.13
	c1.34,0.62,2.73,2.28,3.88,3.67c3.58,4.29,6.16,9.52,9.52,13.52c4.98,5.94,11.21,9.36,20.16,10.54h3.57
	c5.31-0.56,9.5-2.43,13.41-4.59c3.88-2.16,7.72-4.91,12.25-5.83c3.2-0.67,6.79,1.45,9.52,2.74c6.13,2.92,10.88,6.24,18.67,6.99
	c4.13,0.4,7.67-0.19,11.35-1.26c6.53-1.89,10.7-5.35,14.54-11c1.57-2.31,3.25-5.17,4.93-7.91c1.47-2.4,3.38-5.9,5.84-6.98
	c5.78-2.54,13.82-1.45,20.29-2.53c6.74-1.12,11.33-3.8,15.46-7.44c4.03-3.56,7.05-8.22,8.25-14.67c1.27-6.79-0.44-14.24,1.72-21.2
	c0.4-1.26,2.16-2.52,3.21-3.44c3.47-3,7.73-5.32,11.22-7.79c5.22-3.68,8.9-7.76,11.35-13.99c1.19-3.02,2.12-6.75,2.05-10.54
	C274.94,161.6,274.01,158.21,272.71,155.15 M252.2,184.7c-6.12,14.89-14.5,27.19-24.41,37.83c-10.13,10.91-21.87,19.33-35.85,26.36
	c-13.82,6.95-30.25,11.79-49.51,12.48c-19.35,0.7-37.46-3.13-52.25-9.17c-14.77-6.01-27.02-14.8-37.71-24.51
	c-10.91-9.95-19.64-21.82-26.46-35.87c-6.78-13.96-11.62-30.45-12.37-49.38c-0.8-19.73,3.23-37.59,9.15-52.01
	c6.16-15,14.26-26.82,24.41-37.82c16.98-18.38,40.46-32.67,71.28-37.7c4.58-0.74,9.57-1.09,14.21-1.27
	c19.71-0.76,37.98,3.2,52.36,9.29c14.85,6.28,26.96,14.66,37.7,24.52c10.88,9.99,19.4,21.74,26.36,35.97
	c6.67,13.68,11.59,31.13,12.37,49.39C262.34,152.48,258.23,170.07,252.2,184.7 M211.99,91.9c0.55,1.16,0.95,2.48,1.72,3.43
	c3.53-1.73,7.02-3.51,10.65-5.14c0.27,1.13,1.26,1.79,1.26,2.96c0.01,1.87-2.54,4.08-3.78,5.5c-1.67,1.92-3.13,3.49-4.24,5.05
	c0.8,1.16,1.22,2.69,2.07,3.78c2.8-3.64,6.36-6.54,8.59-10.77c4.36,3.91,13.74-0.8,13.87-5.84c0.04-2-1.19-4.06-2.08-5.84
	c-0.96-1.99-2.01-3.96-2.74-5.39C228.84,83.7,220.53,87.92,211.99,91.9 M237.54,91.21c-0.32,1.65-3.36,3.68-5.62,2.87
	c-2.09-0.74-2.2-4.2-3.55-5.97c2.24-1.03,4.45-2.12,6.64-3.21C235.42,86.72,238.01,88.85,237.54,91.21 M247.39,84.79
	c-13.4-27.25-34.17-47.23-62.68-59.59c-13.82-5.98-32.33-10.28-50.99-9.4c-19.14,0.92-34.93,5.09-48.81,11.81
	C71.19,34.26,59.4,42.73,49.51,53.29C39.5,63.93,31.59,75.37,25.34,90.19c-5.8,13.71-10.55,31.72-9.63,50.86
	c0.88,18.56,5.13,34.8,11.8,48.81c6.56,13.77,15.09,25.76,25.68,35.52c10.48,9.68,22.22,18.11,36.77,24.28
	c14.06,5.98,31.45,10.45,50.99,9.52c9.37-0.44,18.21-1.48,26.47-3.56c8.05-2.01,15.54-4.83,22.47-8.13
	c13.78-6.56,25.74-15.12,35.53-25.67c9.77-10.52,18.03-22.22,24.28-36.79c6.03-14.1,10.42-31.48,9.5-51.21
	C258.32,114.95,254.17,98.57,247.39,84.79 M88.23,237.89c-1.35-0.68-2.53-1.51-3.78-2.3c2-3.61,4.3-6.93,6.42-10.42
	c-3.49,2.58-6.88,5.27-10.31,7.91c-1.3-0.61-2.43-1.38-3.55-2.18c0.83-4.2,1.7-8.37,2.52-12.6c-2.07,3.01-4.35,6.79-6.41,10.2
	c-1.34-0.77-2.6-1.61-3.9-2.41c3.71-6.07,7.57-11.99,11.23-18.1c1.61,1.03,3.37,1.91,4.81,3.09c-0.96,5.19-2.02,10.27-3.09,15.35
	c4.19-2.77,8.33-6.56,12.72-9.5c1.48,0.99,3.01,1.96,4.59,2.86C95.83,225.94,92,231.86,88.23,237.89 M55.82,139.33
	c-0.6-12.63,2.87-25.23,6.64-34.02c4.23-9.88,9.27-17.53,16.27-24.53c6.75-6.75,14.31-12.67,23.71-17.07c9.08-4.24,20.08-7.8,33-7.8
	c0.08,0,0.17,0.01,0.24,0c12.84-0.61,25.23,2.71,34.24,6.64c9.65,4.21,17.69,9.67,24.41,16.39c13.68,13.68,23.63,30.78,24.87,56.83
	c0.32,6.62-0.64,13-1.84,18.68c-3.5,16.58-11.3,29.87-21.3,39.88c-13.62,13.62-30.85,23.62-56.73,24.86
	c-12.97,0.61-24.78-2.8-34.15-6.76c-9.6-4.06-17.84-9.59-24.53-16.27C66.87,182.37,57.03,165.14,55.82,139.33 M111.38,245.1
	c-0.23-1.86-0.2-4.06-0.45-6.19c-2.15-0.84-4.63-1.33-6.76-2.18c-1.73,1.38-2.64,3.55-4.37,4.94c-1.33-0.57-2.87-0.94-4.34-1.39
	c4.72-6.13,9.68-12.01,14.67-17.87c1.36,0.5,2.89,0.84,4.23,1.37c0.53,7.92,1.25,14.7,1.85,22.81
	C114.58,246.1,112.92,245.68,111.38,245.1 M142.19,248.77c-1.63-0.02-3.02-0.26-4.58-0.35c-2.8-4.88-5.65-9.68-8.36-14.66
	c-0.73,4.74-0.74,8.67-1.38,13.75c-1.58-0.02-2.96-0.24-4.46-0.34c0.66-6.92,1.12-14.57,1.94-21.2c1.8,0,3.2,0.31,4.71,0.34
	c2.72,4.89,5.41,9.79,8.25,14.56c0.45-3.75,0.74-9.24,1.25-13.64c1.6,0,2.99,0.22,4.47,0.34
	C143.43,234.69,142.81,241.47,142.19,248.77 M152.52,247.62c-1.13-6.94-2.36-14.38-3.32-21.09c1.53-0.15,2.78-0.38,4.35-0.68h0.23
	c1.12,7,2.28,13.98,3.33,21.07C155.57,247.16,154.11,247.46,152.52,247.62 M166.38,245.1c-2.23-6.78-4.67-13.37-6.88-20.17
	c1.4-0.53,2.84-0.99,4.24-1.49c2.13,5.21,3.83,10.86,5.74,16.28c3.42-1.17,6.88-2.28,10.19-3.55c0.74,1.06,0.95,2.64,1.49,3.89
	C176.19,241.69,171.35,243.46,166.38,245.1 M200.53,228.6c-1.74-1.2-3.29-2.59-5.05-3.8c-2.1,1.27-4.2,2.53-6.18,3.91
	c0.42,2.03,0.73,4.16,1.15,6.19c-1.47,0.68-2.86,2.02-4.25,2.4c-1.19-7.63-2.49-15.15-3.78-22.68c1.35-0.68,2.51-1.55,3.78-2.31
	c6.27,4.43,12.34,9.05,18.57,13.54C203.45,226.86,201.85,227.6,200.53,228.6 M241.2,195.95c-0.65,1.16-1.2,2.5-1.94,2.98
	c-0.97,0.6-2.72,0.78-4.02,0.22c-2.3-0.97-2.51-4.52-3.2-6.98c-0.7-2.49-1.54-5.41-3.1-6.99c-3.88-3.97-10.34,0.38-14.2,0.69
	c-3.18,0.24-4.63-2.66-4.24-5.39c0.21-1.47,1.58-3.38,2.28-4.7c5.48-10.27,9.5-23.81,9.05-39.53c-0.49-17.77-5.29-31.58-12.48-43.19
	c-7.05-11.39-16.33-20.61-27.96-27.74c-11.46-7.01-25.32-12.12-43.2-12.26c-18.58-0.15-32.47,5.12-43.76,11.91
	c-11.47,6.9-21.27,16.3-28.31,27.4c-7.34,11.57-12.53,25.09-12.94,42.74c-0.4,16.13,3.36,28.92,8.7,39.86
	c1.16,2.37,3.39,5.15,2.28,8.83c-0.28,0.98-0.9,2.04-2.17,2.17c-2.66,0.31-5.9-1.15-8.37-1.61c-2.5-0.46-5.38-0.68-7.21,1.38
	c-1.97,2.24-2.31,6.43-3.09,9.98c-0.4,1.81-0.64,3.34-2.41,4c-1.59,0.63-3.36,0.48-5.27-0.57c-9.82-16.79-17.18-36.19-17.18-60.96
	c0-25.19,6.94-45.07,16.62-61.41C49.5,52.41,71.51,34.03,100.49,24.3c7.48-2.51,15.45-4.27,24.3-5.17
	c14.87-1.52,31.63-0.01,44.57,3.55c10.6,2.92,19.94,7.21,28.19,12.03c16.94,9.91,30.62,23.28,40.78,39.53
	c9.88,15.8,18.22,36.41,18.22,61.88C256.56,160.88,250.37,179.76,241.2,195.95 M98.09,54.2c-3.29-7.12-6.29-14.55-9.73-21.55
	c-1.05,0.57-2.34,0.89-3.21,1.61c3.72,8.61,7.64,17.04,11.34,25.68c3.83-1.64,7.61-3.35,11.35-5.06c-0.47-1.48-1.25-2.64-1.74-4.12
	C103.3,51.77,100.83,53.13,98.09,54.2 M233.53,110.8c-0.21,1.46-0.03,3.68-0.92,5.15c-0.76,1.27-3.45,2.05-5.03,1.39
	c-1.43-0.6-2.08-2.09-2.08-3.56c0-3.08,2.8-4.1,5.17-5.04c-0.5-0.97-0.91-2.04-1.26-3.21c-4.32,1.29-8.29,2.98-8.46,7.92
	c-0.41,10.24,14.14,9.51,16.72,2.5c0.86-2.33,0.18-6.05,1.36-7.79c1.65-2.4,7.1-1.22,6.07,3.21c-0.74,1.62-2.31,2.44-4.23,2.87
	c0.24,1.3,0.86,2.21,1.14,3.44c4.52-1.29,8.25-3.23,7.56-8.59c-0.46-3.7-3.34-5.98-7.56-5.86
	C236.95,103.39,234.11,106.45,233.53,110.8 M251.64,150.68c-3.94,0.92-8.8,1.94-12.96,2.86c-1.49,0.34-3.08,1.04-4.24,1.03
	c-0.81,0-1.95-0.39-2.87-0.57c-3.04-0.58-5.64-1.25-8.71-1.71c-0.22,1.21-0.49,2.4-0.67,3.66c2,0.32,3.83,0.77,5.72,1.15
	c1.94,0.38,4.09,0.36,5.84,1.04c1.19,0.43,2.46,1.76,3.68,2.63c3.75,2.72,7.49,5.35,11.12,7.79c0.18-1.45,0.42-2.86,0.8-4.11
	c-3.32-2.32-7.14-4.72-10.08-6.99c4.03-0.78,7.89-1.73,11.91-2.52c0.09-0.67,0.18-1.49,0.34-2.29
	C251.65,151.96,252.2,150.92,251.64,150.68 M247.73,136.7c-7.54-0.06-15.33-0.32-23.49-0.34c-0.24,1.02-0.05,2.47-0.11,3.67
	c7.76,0.32,16.09,0.09,23.72,0.57c-0.2,1.75-0.08,3.8-0.12,5.73c1.51,0.01,3.12-0.08,4.47,0.11c0.27-5.02,0.18-10.37,0.34-15.47
	h-4.34C247.62,131.95,248.13,134.98,247.73,136.7 M223.9,128.91c9.14-1.06,18.52-2.21,27.96-3.44c-0.26-1.17,0-2.89-0.68-3.66
	c-9.1,1.16-18.75,2.27-27.73,3.43C223.57,126.49,223.67,127.76,223.9,128.91 M216.92,54.09c-5.92,4.02-11.74,8.12-17.76,12.02
	c3.46-6.19,6.81-12.5,10.3-18.67c-0.78-1.12-1.87-1.95-2.97-2.74c-4.43,8.6-9.01,17.02-13.4,25.66c0.8,0.84,1.55,1.73,2.63,2.3
	c8.05-5.29,15.98-10.68,24.07-15.93C219.03,55.65,217.99,54.84,216.92,54.09 M48.58,148.51c-1.68-1.03-5.06-1.85-8.02-1.49
	c-6.26,0.74-13.62,2.35-16.04,6.87c-1.83,3.42,0.46,7.67,0.81,12.03c9.4-1.61,18.39-3.61,27.73-5.28
	C51.99,155.68,52.15,150.66,48.58,148.51 M29.21,161.46c-0.32-1.77-0.88-3.31-0.8-5.51c1.14-2.87,6.75-4.7,11.34-5.05
	c2.85-0.2,5.8,0.1,6.88,1.73c0.93,1.39,0.71,3.16,1.27,5.15C41.71,159.03,35.41,160.19,29.21,161.46 M50.42,127.54
	c-1.61,0.04-3.1-0.02-4.59-0.12c-0.18,3.67,0.1,7.35-0.34,10.88c-1.61-0.23-5.47,0.12-7.57-0.34c0.11-3.1,0.02-6.28,0.24-9.52
	c-1.3-0.26-3.09-0.04-4.58-0.11c-0.3,3.06,0.11,6.83-0.34,9.73c-2.37-0.16-4.13,0.02-6.66-0.22c-0.06-3.55,0.21-6.75,0.12-10.31
	c-1.52,0.04-2.94-0.04-4.34-0.12c-0.15,0.05-0.24,0.14-0.23,0.34c0.07,4.65-0.23,9.94-0.11,13.87c9.43,0.1,18.76,0.32,28.17,0.46
	C50.18,137.12,50.38,132.65,50.42,127.54 M48.93,112.52c-7.48-2.33-14.96-4.67-22.57-6.87c-0.28,1.25-0.74,2.31-1.03,3.55
	c9.03,2.73,18.03,5.51,27.04,8.25c1.07-4.07,2.43-7.87,3.54-11.92c-1.43-0.4-2.79-0.86-4.24-1.25
	C50.55,106.79,50.04,109.96,48.93,112.52 M106.68,233.52c1.38,0.31,2.6,0.78,3.89,1.16c-0.17-1.86-0.13-3.92-0.45-5.62
	C109.02,230.6,107.62,231.83,106.68,233.52 M106.45,209.7c9.04,3.91,20.43,6.88,32.89,6.29c24.71-1.16,41.44-10.63,54.65-23.83
	c9.58-9.58,17.01-22.74,20.41-38.62c1.16-5.4,2.01-11.27,1.72-17.54c-1.16-24.72-10.6-41.64-23.72-54.77
	c-6.49-6.48-14.34-11.65-23.59-15.82c-8.54-3.82-20.72-6.99-33.02-6.41c-12.47,0.6-22.96,3.15-31.85,7.45
	c-17.81,8.62-30.72,21.79-38.62,40.1c-3.8,8.82-6.99,20.67-6.41,32.77c1.16,24.51,10.66,41.26,23.94,54.55
	C89.32,200.35,97.14,205.66,106.45,209.7 M63.95,156.18c-2.87-11.09-2.83-26.32,0-37.36c5.94-23.17,21.27-40.59,41.36-49.96
	c4.24-1.97,8.6-3.57,13.41-4.8c6.72-1.74,14.61-2.67,23.04-2.3c10.78,0.47,20.49,3.54,28.63,7.45c19.75,9.49,34.7,26.5,40.69,49.61
	c3.16,12.27,3.02,28.25-0.81,40c-1.59-0.27-2.86-0.88-4.47-0.68c-3.75,0.41-4.81,4.37-6.99,6.4c1.16-1.81,1.64-4.46,2.87-6.4
	c1.11-1.76,2.39-2.45,2.63-5.28c0.41-4.99-1.51-7.44-2.87-11.12c-3,3.25-3.85,11-1.94,16.17c-0.3,0.41-0.18,1.19-0.47,1.61
	c-0.38-3.64-2.79-5.24-3.44-8.61c-1.68,1.33-3.64,4.64-2.74,7.69c0.71,2.47,2.36,5.31,2.97,7.44c0.03-0.09,0.12-0.11,0.12-0.22
	c-0.18,0.92-1.09,2.11-1.61,3.09c0.02-4-3.26-5.79-2.85-9.39c-1.77,1.17-3.52,3.67-3.44,6.52c0.05,1.49,0.9,2.8,1.38,4.25
	c0.51,1.57,0.54,3.1,1.13,4.34c-0.55,0.91-1.15,1.83-1.94,2.53c-0.32-2.4-1.98-4.53-1.14-7.34c-2.66,1.63-5.01,3.16-4.7,7.45
	c0.09,1.12,0.52,2.25,0.69,3.33c0.1,0.66,0.31,1.76,0.23,2.17c-0.22,1.09-1.82,1.71-2.29,2.18c-0.07-2.38-0.49-4.42-0.34-6.99
	c-5.5,0.5-5.4,6.26-5.63,12.15c-1.34,0.87-2.57,1.85-4.01,2.63c0.2-2.82,0.64-5.39,1.84-7.23c-6.5-0.87-8.01,5.5-8.48,11
	c-1.55,0.55-2.87,1.31-4.47,1.84c1.14-2.72,1.84-5.87,3.66-7.91c-2.63-0.39-5.11-0.06-6.52,1.15c-1.31,1.11-1.81,3.1-2.63,4.81
	c-0.87,1.77-1.97,3.2-2.76,4.59c-1.61,0.27-3.12,0.63-4.7,0.92c2.66-2.33,3.71-6.3,6.06-8.94c-2.73-0.63-5.63-0.47-7.21,0.8
	c-1.33,1.09-2.04,2.89-3.09,4.46c-1.06,1.59-2.23,3-3.09,4.37c-1.53-0.16-2.8,0.54-4.25,0.11c-0.57-0.18-1.38-1.53-1.93-2.3
	c-0.68-0.91-1.37-1.63-1.84-2.4c-0.96-1.55-1.56-3.39-2.87-4.37c-1.59-1.16-4.12-1.26-7.1-0.68c2.17,2.72,3.62,6.78,5.96,8.94
	c-1.4,0.09-3-0.57-4.58-0.69c-0.67-1.61-2.02-3.02-2.86-4.82c-0.67-1.42-1.05-2.96-1.95-4.12c-1.39-1.79-3.87-2.17-7.1-1.94
	c0.59,1.19,1.52,2.31,2.07,3.89c0.5,1.53,1.13,3.06,1.71,4.47c-1.65-0.48-2.98-1.29-4.59-1.83c-0.67-5.9-1.62-11.98-8.47-11.35
	c1.27,1.94,1.49,4.93,1.95,7.68c-1.51-0.9-3.02-1.79-4.24-2.97c-0.12-5.8-0.07-11.79-5.5-12.27c0.04,2.17-0.3,4.78-0.46,7.1
	c-0.32,0.28-0.78-0.54-1.14-0.9c-0.43-0.43-1.03-0.77-1.15-1.27c0.14-2.4,1.19-4.57,1.03-6.86c-0.2-3.18-2.44-4.89-4.69-6.2
	c0.79,2.89-0.96,4.82-1.14,7.45c-0.86-0.76-1.47-1.73-2.08-2.76c0.79-1.1,0.68-2.72,1.15-4.23c0.4-1.29,1.22-2.36,1.38-3.55
	c0.46-3.38-1.5-5.65-3.33-7.34c0.26,4.27-2.92,5.09-2.73,9.28c-0.79-0.58-1.01-1.75-1.62-2.51c0.47-2.63,2.6-5.5,3.1-8.02
	c0.56-2.85-1.19-5.53-2.87-7.34c-0.44,2.92-2.93,4.78-3.33,8.13c-1.23-1.2-0.24-3.08-0.1-5.04c0.34-5.05-1.05-8.81-2.87-11.69
	c-2.79,4.08-5.42,14.73,0.92,16.85c0.66,2.07,1.68,3.81,2.39,5.83c-2.58-1.81-3.44-6.25-7.32-6.75c-1.65-0.22-2.98,0.41-4.59,0.68
	c2.27,2.73,3.68,8.29,8.37,8.7c1.85,0.16,2.78-0.68,4.47-0.91c1.27,2.5,2.72,4.85,4.12,7.21c-2.13-2.61-7.78-4.44-10.99-1.59
	c0.55,1.05,1.68,1.39,2.74,2.28c1.81,1.55,2.82,3.72,5.4,4.03c1.88,0.21,3.4-0.76,5.15-1.27c1.41,1.56,2.67,3.29,4,4.93
	c-2.7-2.12-7.48-0.57-9.05,1.49c0.83,0.8,1.93,0.8,2.98,1.49c1.83,1.19,2.8,3.06,5.16,3.09c1.9,0.02,3.05-1.4,4.47-2.3
	c1.92,1.58,3.61,3.35,5.61,4.82c-3.25-1.71-7.91,0.24-9.17,2.98c1.03,0.47,2.04,0.38,3.1,0.8c1.69,0.7,2.94,2.73,5.96,2.18
	c1.8-0.32,2.57-2.16,3.9-3.2c1.5,1.01,3.02,1.98,4.7,2.85c-2.15,0.32-4,0.06-5.39,0.93c-1.3,0.81-1.58,2.36-2.4,3.66
	c3.08,0.65,7.63,2.35,10.21,0.35c0.86-0.67,1.09-1.67,1.71-2.75c1.3,0.54,2.53,1.13,3.9,1.61c-3.26,0.53-4.6,2.97-5.28,6.07
	c3.59,0.48,8.29,0.84,10.31-1.61c0.52-0.63,0.61-1.53,1.04-2.41c1.01,0.21,1.88,0.56,2.98,0.7c-2.3,1.31-3.34,3.85-3.68,7.1
	c4.83-1,10.7-0.73,11.46-5.84c4.06,0.58,9.47,0.38,13.87,0c0.51,5.17,6.58,4.79,11.23,5.84c-0.08-3.18-1.36-6.1-3.89-7.22
	c1.26-0.08,2.1-0.58,3.32-0.68c0.29,0.97,0.53,1.75,1.03,2.4c1.93,2.51,6.14,2.17,10.31,1.83c-0.71-3.22-2.01-5.84-5.62-6.18
	c1.27-0.69,2.82-1.09,4.01-1.84c0.9,0.99,0.97,2.39,1.94,3.1c2.74,1.95,6.94,0.04,10.21-0.35c-0.97-3.37-3.24-5.02-8.26-4.59
	c1.59-1.08,3.44-1.91,4.93-3.09c1.77,1.85,3.8,4.36,7.44,2.86c1.64-0.67,3.22-2.36,5.61-2.52c-1.23-3.08-6.56-4.86-9.85-2.51
	c2.23-1.64,4.22-3.5,6.3-5.28c1.53,0.76,2.4,2.21,4.36,2.3c3.4,0.15,5.13-3.93,8.25-4.34c-0.89-2.17-6.02-3.88-8.7-1.85
	c1.02-1.46,2.56-3.38,4-4.8c1.52,0.59,2.92,1.4,4.7,1.27c2.87-0.23,3.83-2.64,5.86-4.25c0.95-0.76,1.89-1.09,2.51-1.95
	c-2.57-2.78-8.39-1.41-10.54,1.04c1.47-2.1,2.66-4.44,4.01-6.65c1.52,0.23,2.34,0.91,4.02,0.79c4.62-0.32,5.82-5.41,8.23-8.25
	c-4.46,15.19-12.97,27.42-24.41,36.78c-11.62,9.5-26.33,16.34-45.72,17.2c-13.85,0.6-25.58-2.83-35.18-7.34
	c-16.11-7.58-28.56-20.49-35.98-36.44C66.82,165.3,65.17,160.93,63.95,156.18 M34.37,85.14c7.26,6.45,14.33,13.1,21.66,19.48
	c0.5-1.23,1.25-2.19,1.71-3.44c-1.95-2.01-4.37-3.56-6.18-5.74c1.12-1.62,1.87-3.63,2.98-5.25c2.79,0.55,5.37,1.33,8.13,1.94
	c0.53-1.3,1.31-2.36,1.84-3.66c-9.44-2.17-18.92-4.31-28.29-6.54C35.43,82.82,35,84.08,34.37,85.14 M50.19,89.03
	c-0.65,1.24-1.29,2.46-1.94,3.68c-2.19-1.82-4.2-3.82-6.42-5.62C44.47,87.42,47.38,88.48,50.19,89.03 M191.94,222.41
	c-1.25-1.33-3.07-2.67-4.47-3.44c0.42,1.75,0.73,3.63,1.03,5.51C189.72,223.86,190.74,223.06,191.94,222.41 M68.18,62.45
	c-1.79-0.01-3.36,0.73-4.7,1.38c-1.13,0.54-2.75,1.83-4.47,1.59c-1.63-0.21-3.08-2.13-2.76-4c0.2-1.13,1.52-2.54,2.76-2.76
	c2.27-0.39,3.09,1.25,4.7,2.07c0.55-1.14,1.53-1.83,2.06-2.99c-2.28-1.81-4.4-3.7-8.03-3.21c-3.13,0.42-6.14,3.7-5.61,7.69
	c0.47,3.5,4.14,7.43,8.25,7.57c3.93,0.09,6.18-3.36,9.52-2.88c1.91,0.28,3.66,2.38,3.21,4.7c-0.4,2.02-2.85,3.39-5.05,2.99
	c-1.58-0.29-2.52-1.63-3.78-2.3c-0.67,0.98-1.39,1.89-2.07,2.86c2.57,1.93,4.42,4.28,8.72,3.78c1.84-0.22,3.61-1.39,4.69-2.63
	C80.16,71.06,74.55,62.48,68.18,62.45 M70.12,43.31c3.48,9.1,6.86,18.29,10.44,27.28c0.94-0.9,2.3-1.37,3.1-2.4
	c-1.01-2.52-2-5.03-2.99-7.57c0.77-0.7,1.49-1.11,2.53-1.83c0.35-0.26,2.21-1.87,2.64-1.83c0.13,0,1.36,1.16,1.6,1.36
	c1.74,1.49,3.16,2.98,4.82,4.13c0.94-0.93,2.24-1.51,3.21-2.41c-7.52-6.19-14.83-12.6-22.47-18.68
	C72.03,42.01,71.13,42.71,70.12,43.31 M82.4,53.98c-1.03,0.93-2.21,1.69-3.44,2.41c-1.01-2.71-2.09-5.34-3.1-8.02
	C78.08,50.17,80.12,52.18,82.4,53.98"/>
</svg>
